<svg xmlns="http://www.w3.org/2000/svg" version="1.1" xmlns:xlink="http://www.w3.org/1999/xlink" xmlns:svgjs="http://svgjs.dev/svgjs" width="1000" height="1000" viewBox="0 0 1000 1000"><rect width="1000" height="1000" fill="#ffffff"></rect><g transform="matrix(0.7,0,0,0.7,149.57576017110796,344.2048506583188)"><svg viewBox="0 0 396 176" data-background-color="#3d3939" preserveAspectRatio="xMidYMid meet" height="444" width="1000" xmlns="http://www.w3.org/2000/svg" xmlns:xlink="http://www.w3.org/1999/xlink"><g id="tight-bounds" transform="matrix(1,0,0,1,0.23999877543411685,0.22376539297265197)"><svg viewBox="0 0 395.52 175.55246227386706" height="175.55246227386706" width="395.52"><g><svg viewBox="0 0 680.7450078326067 302.15023843461023" height="175.55246227386706" width="395.52"><g><rect width="10.345081244252315" height="262.3591071791116" x="422.6013645137495" y="19.895565627749306" fill="#000000" opacity="1" stroke-width="0" stroke="transparent" fill-opacity="1" class="rect-o-0" data-fill-palette-color="primary" rx="1%" id="o-0" data-palette-color="#54995a"></rect></g><g transform="matrix(1,0,0,1,0,41.758824559341946)"><svg viewBox="0 0 395.52 218.63258931592634" height="218.63258931592634" width="395.52"><g id="textblocktransform"><svg viewBox="0 0 395.52 218.63258931592634" height="218.63258931592634" width="395.52" id="textblock"><g><svg viewBox="0 0 395.52 114.71460255913145" height="114.71460255913145" width="395.52"><g transform="matrix(1,0,0,1,0,0)"><svg width="395.52" viewBox="3.6100001335144043 -36.040000915527344 125.91999816894531 36.53000259399414" height="114.71460255913145" data-palette-color="#54995a"><path d="M31.81-35.55L31.81 0 25.63 0 9.79-25.22 9.79 0 3.61 0 3.61-35.55 9.79-35.55 25.68-10.23 25.68-35.55 31.81-35.55ZM67.48-18.82L67.48-16.85Q67.48-11.62 65.67-7.68 63.86-3.74 60.51-1.62 57.15 0.49 52.78 0.49L52.78 0.49Q48.46 0.49 45.08-1.62 41.7-3.74 39.85-7.64 38.01-11.55 37.99-16.65L37.99-16.65 37.99-18.65Q37.99-23.85 39.83-27.83 41.67-31.81 45.03-33.92 48.39-36.04 52.73-36.04 57.08-36.04 60.43-33.95 63.79-31.86 65.62-27.94 67.45-24.02 67.48-18.82L67.48-18.82ZM61.3-16.85L61.3-18.7Q61.3-24.61 59.07-27.76 56.83-30.91 52.73-30.91L52.73-30.91Q48.73-30.91 46.47-27.77 44.21-24.63 44.16-18.9L44.16-18.9 44.16-16.85Q44.16-10.99 46.45-7.79 48.73-4.59 52.78-4.59L52.78-4.59Q56.88-4.59 59.09-7.71 61.3-10.84 61.3-16.85L61.3-16.85ZM83.86 0L73.63 0 73.63-35.55 84.13-35.55Q88.84-35.55 92.49-33.45 96.14-31.35 98.14-27.49 100.14-23.63 100.14-18.65L100.14-18.65 100.14-16.87Q100.14-11.82 98.13-7.98 96.11-4.15 92.39-2.08 88.67 0 83.86 0L83.86 0ZM84.13-30.57L79.8-30.57 79.8-4.93 83.83-4.93Q88.69-4.93 91.29-7.97 93.89-11.01 93.94-16.7L93.94-16.7 93.94-18.68Q93.94-24.46 91.43-27.51 88.91-30.57 84.13-30.57L84.13-30.57ZM127.07-20.75L127.07-15.87 112.47-15.87 112.47-4.93 129.53-4.93 129.53 0 106.29 0 106.29-35.55 129.36-35.55 129.36-30.57 112.47-30.57 112.47-20.75 127.07-20.75Z" opacity="1" transform="matrix(1,0,0,1,0,0)" fill="#000000" class="undefined-text-0" data-fill-palette-color="primary" id="text-0"></path></svg></g></svg></g><g transform="matrix(1,0,0,1,163.31020799999996,141.79596707288096)"><svg viewBox="0 0 232.20979200000002 76.83662224304538" height="76.83662224304538" width="232.20979200000002"><g transform="matrix(1,0,0,1,0,0)"><svg width="232.20979200000002" viewBox="-1 -33.900001525878906 102.44000244140625 33.900001525878906" height="76.83662224304538" data-palette-color="#54995a"><path d="M31.95-2.9L35.55-2.45 35.5 0 20.95 0 20.65-1.6Q22.3-2.5 25.25-3.5L25.25-3.5 22.9-9.55 10.2-9.55 7.7-3.1 12.6-2.45 12.55 0-0.7 0-1-1.6Q0.8-2.55 3.15-3.35L3.15-3.35 14.55-31.1 14.05-32.35 19.3-33.9 31.95-2.9ZM11.5-13L21.55-13 16.55-25.95 11.5-13ZM45.55-3.05L50.3-2.45 50.25 0 35.5 0 35.2-1.6 39.45-3.4 39.45-29.75 35.6-30.25 35.65-32.7 49.5-32.7 49.8-31.1Q48.55-30.4 45.55-29.3L45.55-29.3 45.55-3.05ZM81.45-2.85L84.4-2.5 84.34 0 75.9 0 65.15-14.85 62.45-12 62.45-3.05 67-2.45 66.95 0 52.4 0 52.1-1.6 56.35-3.4 56.35-29.75 52.45-30.25 52.5-32.7 66.4-32.7 66.7-31.1Q65.45-30.4 62.45-29.3L62.45-29.3 62.45-17.25 74.15-29.8 70.75-30.25 70.8-32.7 82.45-32.7 82.75-31.1Q81.55-30.4 78.95-29.55L78.95-29.55 69.2-19.2 81.45-2.85ZM96.69-3.05L101.44-2.45 101.39 0 86.64 0 86.34-1.6 90.59-3.4 90.59-29.75 86.74-30.25 86.79-32.7 100.64-32.7 100.94-31.1Q99.69-30.4 96.69-29.3L96.69-29.3 96.69-3.05Z" opacity="1" transform="matrix(1,0,0,1,0,0)" fill="#000000" class="undefined-text-1" data-fill-palette-color="secondary" id="text-1"></path></svg></g></svg></g></svg></g></svg></g><g transform="matrix(1,0,0,1,460.0278102717513,0)"><svg viewBox="0 0 220.7171975608553 302.15023843461023" height="302.15023843461023" width="220.7171975608553"><g><svg xmlns="http://www.w3.org/2000/svg" xmlns:xlink="http://www.w3.org/1999/xlink" version="1.1" x="0" y="0" viewBox="12.414999008178711 1.5069999694824219 70.48699951171875 96.49299621582031" enable-background="new 0 0 100 100" xml:space="preserve" height="302.15023843461023" width="220.7171975608553" class="icon-icon-0" data-fill-palette-color="accent" id="icon-0"><g fill="#54995a" data-fill-palette-color="accent"><g fill="#54995a" data-fill-palette-color="accent"><path fill-rule="evenodd" clip-rule="evenodd" d="M67.497 66.347c-2.743 0-5.309 0.775-7.528 2.111L41.635 55.387c0.67-1.787 1.052-3.728 1.052-5.764 0-2.252-0.457-4.39-1.267-6.328l17.873-12.848c2.418 1.71 5.333 2.709 8.473 2.709 8.358 0 15.136-7.085 15.136-15.825S76.124 1.507 67.766 1.507c-8.362 0-15.136 7.085-15.136 15.825 0 1.254 0.154 2.469 0.418 3.639l-19.587 14.08c-1.816-0.806-3.813-1.253-5.91-1.253-8.36 0-15.136 7.082-15.136 15.825 0 8.739 6.775 15.825 15.136 15.825 2.412 0 4.685-0.606 6.709-1.656l18.863 13.449c-0.486 1.554-0.759 3.208-0.759 4.931C52.365 90.915 59.143 98 67.497 98c8.362 0 15.137-7.085 15.137-15.828C82.634 73.433 75.859 66.347 67.497 66.347z" fill="#000000" data-fill-palette-color="accent"></path></g></g></svg></g></svg></g></svg></g><defs></defs></svg><rect width="395.52" height="175.55246227386706" fill="none" stroke="none" visibility="hidden"></rect></g></svg></g></svg>